# xmcd
#
# Track frame offsets: 
#        150
#        10451
#        24359
#        34740
#        47283
#        59069
#        71160
#        91227
#        104420
#        116110
#        128806
#        144634
#
# Disc length: 2441 seconds
#
# Revision: 0
# Processed by: cddbd v1.5.2PL0 Copyright (c) Steve Scherf et al.
# Submitted via: ExactAudioCopy v0.95b3
#
DISCID=a809870c
DTITLE=Richard Smerin - Personal
DYEAR=1999
DGENRE=Blues
TTITLE0=Personal
TTITLE1=I Don't Give A Damn
TTITLE2=For The Love Of Alex Klein
TTITLE3=Feels Like I've Got No Home
TTITLE4=Lost The Strength To Lie To You
TTITLE5=Mr. Wallenstein Failed To Show
TTITLE6=Rose
TTITLE7=Cambridge Blues
TTITLE8=I Can't Play The Irish Pub No More
TTITLE9=Give Me One Last Chance
TTITLE10=Following Bert
TTITLE11=Finality
EXTD=
EXTT0=
EXTT1=
EXTT2=
EXTT3=
EXTT4=
EXTT5=
EXTT6=
EXTT7=
EXTT8=
EXTT9=
EXTT10=
EXTT11=
PLAYORDER=
